<svg width="20" height="20" viewBox="0 0 20 20" fill="none" xmlns="http://www.w3.org/2000/svg">
  <path fill-rule="evenodd" clip-rule="evenodd" d="M8.86653 1.82551C9.49035 0.727086 10.5083 0.722575 11.1345 1.82551L19.7471 17.0028C20.3709 18.1012 19.8015 19 18.4692 19H1.5318C0.199532 19 -0.372303 18.1057 0.253935 17.0028L8.86653 1.82551ZM9.14566 12.8099C9.37239 13.0214 9.67989 13.1402 10.0005 13.1402C10.3212 13.1402 10.6287 13.0214 10.8554 12.8099C11.0821 12.5984 11.2095 12.3116 11.2095 12.0125V6.37372C11.2095 6.07463 11.0821 5.78778 10.8554 5.57628C10.6287 5.36479 10.3212 5.24597 10.0005 5.24597C9.67989 5.24597 9.37239 5.36479 9.14566 5.57628C8.91894 5.78778 8.79157 6.07463 8.79157 6.37372V12.0125C8.79157 12.3116 8.91894 12.5984 9.14566 12.8099ZM9.14566 16.1932C9.37239 16.4046 9.67989 16.5235 10.0005 16.5235C10.3212 16.5235 10.6287 16.4046 10.8554 16.1932C11.0821 15.9817 11.2095 15.6948 11.2095 15.3957C11.2095 15.0966 11.0821 14.8098 10.8554 14.5983C10.6287 14.3868 10.3212 14.268 10.0005 14.268C9.67989 14.268 9.37239 14.3868 9.14566 14.5983C8.91894 14.8098 8.79157 15.0966 8.79157 15.3957C8.79157 15.6948 8.91894 15.9817 9.14566 16.1932Z" fill="#EF4F39"/>
</svg>
