<svg xmlns="http://www.w3.org/2000/svg" width="106" height="32" fill="none" viewBox="0 0 106 32">
  <path fill="#000" fill-rule="evenodd" d="M74.685 22.495c2.402 5.75 8.045 9.493 14.297 9.48 8.518-.025 15.412-6.907 15.419-15.392 0-6.228-3.768-11.843-9.546-14.224C89.078-.02 82.43 1.302 78.014 5.71c-4.416 4.41-5.73 11.035-3.329 16.785zm5.303-5.919c0-4.948 4.027-8.96 8.994-8.96 2.386 0 4.673.944 6.36 2.625 1.687 1.68 2.634 3.96 2.634 6.335 0 4.949-4.026 8.96-8.994 8.96-4.967 0-8.994-4.011-8.994-8.96z" clip-rule="evenodd"/>
  <path fill="#000" d="M67.487 31.424L54.523 16.499l13.195-14.9h8.621L63.067 16.5 75.954 31.43l-8.467-.006zM29.282 1.6H51.921V8.102H29.282zM29.282 13.306H51.921V19.802H29.282zM29.282 24.94H51.921V31.436H29.282zM9.11 8.102H0V1.6h24.746v6.502h-9.084V31.43H9.11V8.102z"/>
</svg>
